<svg viewBox="0 0 512 512" xmlns="http://www.w3.org/2000/svg"><g id="Layer_2" data-name="Layer 2"><g id="Layer_1_copy_6" data-name="Layer 1 copy 6"><g id="_116" data-name="116"><path d="m256 0c-141.38 0-256 114.62-256 256s114.62 256 256 256 256-114.62 256-256-114.62-256-256-256zm-66.84 301.8a12.83 12.83 0 0 1 -18.16 18.14l-54.73-54.73a12.83 12.83 0 0 1 0-18.14l54.73-54.73a12.83 12.83 0 0 1 18.14 18.14l-45.64 45.66zm102.26-101.23-45.42 120.22a12.83 12.83 0 0 1 -24-9.08l45.48-120.22a12.81 12.81 0 0 1 16.52-7.49 12.81 12.81 0 0 1 7.42 16.57zm105.68 64.64-54.74 54.73a12.81 12.81 0 0 1 -18.13 0 12.83 12.83 0 0 1 0-18.14l45.66-45.66-45.66-45.66a12.82 12.82 0 0 1 18.13-18.14l54.74 54.73a12.84 12.84 0 0 1 0 18.14z"/></g></g></g></svg>